<svg width="24" height="24" viewBox="0 0 24 24" fill="none" xmlns="http://www.w3.org/2000/svg">
<path fill-rule="evenodd" clip-rule="evenodd" d="M23.9997 12.4343H22.7513C22.3746 12.4343 22.1009 12.5243 21.9071 12.6641V12.4343H20.0605C19.7652 12.4343 19.4186 12.5073 19.2546 12.6641V12.4343H15.9572V12.6641C15.6947 12.4754 15.2519 12.4343 15.0475 12.4343H12.8725V12.6641C12.6649 12.4637 12.2032 12.4343 11.9217 12.4343H9.48749L8.93045 13.0353L8.40873 12.4343H4.77246V16.3613H8.34029L8.91427 15.7507L9.45497 16.3613L11.6542 16.3632V15.4394H11.8704C12.1622 15.4439 12.5064 15.4322 12.81 15.3014V16.3612H14.624V15.3377H14.7115C14.8232 15.3377 14.8341 15.3423 14.8341 15.4535V16.3611H20.3446C20.6945 16.3611 21.0602 16.2718 21.2627 16.1098V16.3611H23.0106C23.3743 16.3611 23.7295 16.3103 23.9998 16.1801C23.9998 -5.30548 23.9997 21.4302 23.9997 12.4343Z" fill="white"/>
<path fill-rule="evenodd" clip-rule="evenodd" d="M1.15265 11.518L1.41253 10.893H1.99434L2.25354 11.518H4.52129V11.0402L4.72371 11.52H5.90096L6.10338 11.0331V11.518H11.7392L11.7365 10.4921H11.8456C11.9219 10.4947 11.9442 10.5018 11.9442 10.6275V11.518H14.8591V11.2792C15.0942 11.4048 15.4599 11.518 15.9411 11.518H17.1674L17.4298 10.893H18.0116L18.2683 11.518H20.6314V10.9243L20.9892 11.518H22.8828V7.59375H21.0088V8.05721L20.7464 7.59375H18.8233V8.05721L18.5824 7.59375H15.9848C15.55 7.59375 15.1678 7.65426 14.8591 7.82289V7.59375H13.0666V7.82289C12.8701 7.64908 12.6024 7.59375 12.3047 7.59375H5.756L5.31659 8.60731L4.86536 7.59375H2.80266V8.05721L2.57607 7.59375H0.816922L0 9.45954V11.518H1.15265Z" fill="white"/>
<path fill-rule="evenodd" clip-rule="evenodd" d="M11.9005 14.8606C12.4902 14.8606 13.0752 14.6992 13.0752 13.9174C13.0752 13.138 12.4737 12.9902 11.9384 12.9902H9.78293L8.9249 13.9127L8.09495 12.9902H5.38184V15.8046H8.05384L8.91707 14.8729L9.74769 15.8046H11.0588V14.8606H11.9005ZM11.0588 14.2891H11.9306C12.1898 14.2891 12.351 14.1608 12.351 13.9174C12.351 13.6713 12.1819 13.5724 11.9384 13.5724H11.0588V14.2891ZM7.71232 15.2181H6.05379V14.6581H7.53476V14.0839H6.05379V13.5723H7.74501L8.48285 14.3924L7.71232 15.2181ZM10.387 15.5486L9.35128 14.4023L10.387 13.2923V15.5486Z" fill="#1E1C1C"/>
<path fill-rule="evenodd" clip-rule="evenodd" d="M15.9601 14.733C15.9026 14.651 15.7798 14.552 15.6297 14.4967C15.8072 14.4264 16.1077 14.1972 16.1078 13.748C16.1078 13.427 15.9739 13.2513 15.761 13.1231C15.5396 13.0053 15.2909 12.9902 14.9494 12.9902H13.392V15.8046H14.0698V14.7767H14.7907C15.0368 14.7767 15.187 14.8008 15.2856 14.9016C15.3985 15.0194 15.3965 15.2343 15.395 15.3995C15.3948 15.4179 15.3946 15.4356 15.3946 15.4525V15.8046H16.0719V15.2467C16.0692 14.9986 16.0554 14.8704 15.9601 14.733ZM15.2223 14.1465C15.132 14.1999 15.0205 14.2044 14.8892 14.2044H14.0697V13.5724H14.9003C15.0205 13.5724 15.1406 13.5749 15.2223 13.6232C15.3097 13.6688 15.362 13.7559 15.362 13.8763C15.362 13.9968 15.3097 14.0938 15.2223 14.1465Z" fill="#1E1C1C"/>
<path d="M21.3092 14.3203C21.4406 14.4558 21.511 14.6269 21.511 14.9165C21.511 15.522 21.1316 15.8046 20.4513 15.8046H19.1374V15.2011H20.446C20.5739 15.2011 20.6647 15.1842 20.7215 15.1314C20.7679 15.0879 20.8012 15.0247 20.8012 14.9479C20.8012 14.8659 20.7652 14.8008 20.7189 14.7617C20.6673 14.7188 20.5962 14.6993 20.4787 14.6993C20.4374 14.6979 20.3954 14.6967 20.353 14.6956C19.7478 14.6792 19.0578 14.6605 19.0578 13.8282C19.0578 13.42 19.3151 12.9903 20.0223 12.9903H21.3746V13.5893H20.1372C20.0145 13.5893 19.9348 13.5939 19.8669 13.6401C19.793 13.6857 19.7656 13.7534 19.7656 13.8426C19.7656 13.9488 19.8284 14.021 19.9132 14.0523C19.9844 14.077 20.0608 14.0842 20.1757 14.0842L20.5389 14.0939C20.9051 14.1028 21.1564 14.166 21.3092 14.3203Z" fill="#1E1C1C"/>
<path d="M24 13.5891H22.7706C22.6479 13.5891 22.5663 13.5937 22.4976 13.64C22.4265 13.6855 22.3991 13.7532 22.3991 13.8425C22.3991 13.9486 22.4592 14.0208 22.5466 14.0521C22.6177 14.0768 22.6942 14.084 22.8065 14.084L23.1721 14.0937C23.5411 14.1028 23.7873 14.1661 23.9375 14.3203C23.9605 14.3384 23.9758 14.3584 23.9914 14.3787L23.9956 14.3842L23.9983 14.3876L24 14.3899V15.4446C23.8362 15.6835 23.5169 15.8046 23.0846 15.8046H21.7819V15.2011H23.0794C23.2081 15.2011 23.2981 15.1842 23.3523 15.1314C23.3993 15.0879 23.4321 15.0247 23.4321 14.9479C23.4321 14.8659 23.3993 14.8008 23.3497 14.7617C23.3008 14.7188 23.2295 14.6993 23.112 14.6993C23.0706 14.6979 23.0285 14.6967 22.986 14.6956C22.3786 14.6792 21.6884 14.6605 21.6884 13.8282C21.6884 13.42 21.9484 12.9903 22.6563 12.9903H24L24 13.5891Z" fill="#1E1C1C"/>
<path d="M16.4818 12.9902H18.7332V13.5723H17.1536V14.0839H18.6947V14.6581H17.1536V15.2181L18.7332 15.2206V15.8046H16.4818V12.9902Z" fill="#1E1C1C"/>
<path fill-rule="evenodd" clip-rule="evenodd" d="M2.16329 9.74702L1.70159 8.62534L1.24252 9.74702H2.16329ZM12.3346 9.3004C12.2419 9.35649 12.1323 9.35836 12.0009 9.35836H11.1814V8.7334H12.0121C12.1296 8.7334 12.2523 8.73866 12.332 8.78415C12.4195 8.82514 12.4736 8.91239 12.4736 9.0329C12.4736 9.15587 12.4221 9.25482 12.3346 9.3004ZM18.1807 9.74702L17.7139 8.62534L17.2496 9.74702H18.1807ZM7.28325 10.9611H6.59171L6.58916 8.75748L5.61101 10.9611H5.01873L4.03803 8.75553V10.9611H2.66602L2.40683 10.3335H1.0023L0.740463 10.9611H0.0078125L1.21579 8.14746H2.21802L3.36531 10.8114V8.14746H4.46628L5.34909 10.0562L6.16005 8.14746H7.28316V10.9611H7.28325ZM10.0394 10.9611H7.78599V8.14746H10.0394V8.73338H8.46059V9.24054H10.0016V9.8173H8.46059V10.3792H10.0394V10.9611ZM13.2167 8.90524C13.2167 9.35384 12.9164 9.58561 12.7414 9.6552C12.889 9.71121 13.0151 9.81017 13.0751 9.89215C13.1703 10.0321 13.1868 10.1571 13.1868 10.4084V10.9611H12.5064L12.5038 10.6063C12.5038 10.437 12.5201 10.1935 12.3973 10.0581C12.2988 9.95919 12.1485 9.93772 11.9057 9.93772H11.1815V10.9611H10.507V8.14746H12.0585C12.4033 8.14746 12.6573 8.15654 12.8754 8.28223C13.0888 8.40792 13.2167 8.5914 13.2167 8.90524ZM14.2963 10.9611H13.608V8.14746H14.2963V10.9611ZM22.2814 10.9611H21.3255L20.0469 8.84931V10.9611H18.6731L18.4106 10.3335H17.0093L16.7546 10.9611H15.9653C15.6374 10.9611 15.2222 10.8888 14.9871 10.6499C14.75 10.411 14.6267 10.0874 14.6267 9.57577C14.6267 9.15848 14.7004 8.777 14.9903 8.47556C15.2084 8.251 15.5499 8.14746 16.0148 8.14746H16.6679V8.75035H16.0285C15.7823 8.75035 15.6433 8.78685 15.5094 8.91703C15.3944 9.03551 15.3155 9.25947 15.3155 9.55438C15.3155 9.85583 15.3756 10.0732 15.501 10.2152C15.6048 10.3265 15.7936 10.3603 15.9711 10.3603H16.2741L17.2248 8.14755H18.2356L19.3777 10.8089V8.14755H20.4047L21.5905 10.1071V8.14755H22.2814V10.9611Z" fill="#1E1C1C"/>
</svg>
