<svg width="31" height="20" viewBox="0 0 31 20" fill="none" xmlns="http://www.w3.org/2000/svg">
<path d="M29.8727 0.136719H1.12727C0.504697 0.136719 0 0.641416 0 1.26399V18.7367C0 19.3593 0.504697 19.864 1.12727 19.864H29.8727C30.4953 19.864 31 19.3593 31 18.7367V1.26399C31 0.641416 30.4953 0.136719 29.8727 0.136719Z" fill="white"/>
<path d="M3.83691 3.51074H4.10239V10.5596H3.83691V3.51074ZM4.36786 3.51074H4.63333V10.5596H4.36786V3.51074ZM5.96182 3.51074H6.2273V10.5596H5.96182V3.51074ZM11.1292 3.51074H11.3947V10.5596H11.1292V3.51074ZM12.8568 3.51074H13.1223V10.5596H12.8568V3.51074ZM14.5319 3.51074H14.7974V10.5596H14.5319V3.51074ZM14.9637 3.51074H15.2291V10.5596H14.9637V3.51074ZM15.396 3.51074H15.6614V10.5596H15.396V3.51074ZM15.8818 3.51074H16.1473V10.5596H15.8818V3.51074ZM16.3677 3.51074H16.6331V10.5596H16.3677V3.51074ZM17.7181 3.51074H17.9836V10.5596H17.7181V3.51074ZM21.0667 3.51074H21.3322V10.5596H21.0667V3.51074ZM24.5596 3.51074H24.825V10.5596H24.5596V3.51074ZM25.5149 3.51074H25.7804V10.5596H25.5149V3.51074ZM26.2054 3.51074H26.4709V10.5596H26.2054V3.51074ZM26.6304 3.51074H26.8958V10.5596H26.6304V3.51074ZM7.71473 3.51074H7.98021V10.5596H7.71473V3.51074ZM5.05831 3.51074H5.53628V10.5596H5.05831V3.51074ZM8.21299 3.51074H8.69095V10.5596H8.21299V3.51074ZM10.4281 3.51074H10.906V10.5596H10.4281V3.51074ZM11.5621 3.51074H12.0401V10.5596H11.5621V3.51074ZM13.3443 3.51074H13.8223V10.5596H13.3443V3.51074ZM18.4255 3.51074H19.1689V10.5596H18.4255V3.51074ZM19.3967 3.51074H19.9811V10.5596H19.3967V3.51074ZM20.4213 3.51074H20.8993V10.5596H20.4213V3.51074ZM21.7763 3.51074H22.5733V10.5596H21.7763V3.51074ZM23.337 3.51074H24.134V10.5596H23.337V3.51074ZM6.49277 3.51074H7.4487V10.5596H6.49277V3.51074ZM8.97051 3.51074H9.71395V10.5596H8.97051V3.51074Z" fill="#010101"/>
<path d="M4.18066 16.8182V12.7837H5.69459C5.94756 12.7739 6.19989 12.8155 6.43634 12.906C6.6176 12.9834 6.7704 13.1152 6.87372 13.283C6.97609 13.4419 7.03103 13.6267 7.0321 13.8157C7.03212 13.988 6.98347 14.1568 6.89176 14.3027C6.7885 14.4634 6.64144 14.5913 6.4679 14.6713C6.69065 14.7284 6.8886 14.8569 7.03154 15.0371C7.16382 15.2129 7.23311 15.4281 7.22825 15.6481C7.22977 15.8306 7.18886 16.011 7.10875 16.1751C7.04099 16.3222 6.93917 16.451 6.81172 16.551C6.67905 16.6461 6.52886 16.7139 6.36983 16.7505C6.15658 16.7995 5.93815 16.8222 5.71939 16.8182H4.18066ZM4.71499 14.4791H5.5875C5.75791 14.4858 5.92846 14.47 6.09477 14.4323C6.21648 14.4014 6.32439 14.3308 6.40139 14.2316C6.47308 14.1285 6.50928 14.0049 6.50454 13.8794C6.50702 13.7548 6.47356 13.6321 6.40815 13.526C6.34572 13.4252 6.24875 13.3507 6.13535 13.3163C5.93421 13.27 5.72776 13.2511 5.52156 13.2599H4.71499V14.4791ZM4.71499 16.3425H5.71939C5.84089 16.3456 5.96245 16.3392 6.08294 16.3233C6.19193 16.3056 6.29656 16.2674 6.39125 16.2106C6.47775 16.1547 6.54794 16.0769 6.59472 15.9851C6.64931 15.8809 6.67683 15.7646 6.67476 15.6469C6.67853 15.5066 6.63811 15.3685 6.55921 15.2524C6.48138 15.1408 6.3685 15.0585 6.2385 15.0185C6.04629 14.9665 5.84736 14.9437 5.64837 14.9508H4.71499V16.3425ZM8.00832 14.8533C7.97456 14.2785 8.16832 13.7134 8.54772 13.2802C8.72652 13.0925 8.9431 12.9447 9.18317 12.8468C9.42324 12.7489 9.68135 12.7029 9.94046 12.7121C10.2943 12.7072 10.6427 12.7996 10.9477 12.9792C11.2441 13.1545 11.482 13.4135 11.6314 13.7238C11.7925 14.0617 11.8729 14.4323 11.8664 14.8065C11.873 15.1871 11.7881 15.5636 11.619 15.9045C11.4656 16.2148 11.2206 16.4706 10.9172 16.6372C10.6173 16.8026 10.2801 16.8884 9.93765 16.8864C9.57929 16.8923 9.22651 16.7972 8.91972 16.6119C8.62451 16.4329 8.38805 16.1716 8.23941 15.86C8.08629 15.5466 8.00723 15.2021 8.00832 14.8533ZM8.55899 14.8618C8.53605 15.2816 8.67757 15.6938 8.95354 16.011C9.07799 16.1474 9.23024 16.2554 9.40001 16.3278C9.56978 16.4003 9.75312 16.4354 9.93765 16.4309C10.1233 16.4357 10.3078 16.4002 10.4784 16.3269C10.649 16.2537 10.8018 16.1444 10.9263 16.0065C11.2047 15.6699 11.344 15.2396 11.3157 14.8037C11.3231 14.5086 11.2672 14.2153 11.1517 13.9436C11.0499 13.7093 10.8803 13.5109 10.6647 13.3738C10.4493 13.2384 10.1994 13.1681 9.94497 13.1714C9.76469 13.1687 9.58564 13.2017 9.41818 13.2686C9.25072 13.3354 9.09817 13.4348 8.96932 13.5609C8.81687 13.7388 8.70194 13.9457 8.63143 14.1692C8.56092 14.3926 8.53628 14.628 8.55899 14.8612V14.8618ZM12.7417 16.8182V12.7837H13.2755V16.3419H15.2623V16.8182H12.7417ZM16.1179 16.8182V12.7837H19.0353V13.2599H16.6517V14.4954H18.8837V14.9689H16.6517V16.3419H19.1289V16.8182H16.1179ZM21.1016 16.8182V13.2599H19.772V12.7837H22.97V13.2599H21.6354V16.8182H21.1016ZM23.4621 14.8533C23.4287 14.2783 23.6228 13.7132 24.0026 13.2802C24.1814 13.0925 24.398 12.9447 24.6381 12.8468C24.8782 12.7489 25.1363 12.7029 25.3954 12.7121C25.7492 12.7072 26.0977 12.7996 26.4026 12.9792C26.699 13.1545 26.9369 13.4135 27.0863 13.7238C27.2474 14.0617 27.3278 14.4323 27.3213 14.8065C27.3279 15.1871 27.2431 15.5636 27.0739 15.9045C26.92 16.2154 26.6742 16.4714 26.3699 16.6378C26.07 16.8031 25.7328 16.8889 25.3903 16.8869C25.0317 16.8928 24.6787 16.7975 24.3718 16.6119C24.0772 16.4327 23.8414 16.1713 23.6932 15.86C23.5401 15.5466 23.461 15.2021 23.4621 14.8533ZM24.0128 14.8618C23.9898 15.2816 24.1314 15.6938 24.4073 16.011C24.5318 16.1474 24.684 16.2554 24.8538 16.3278C25.0236 16.4003 25.2069 16.4354 25.3914 16.4309C25.5776 16.4362 25.7627 16.4011 25.9339 16.3279C26.1052 16.2547 26.2586 16.1453 26.3834 16.0071C26.6618 15.6705 26.8011 15.2402 26.7729 14.8043C26.7787 14.5088 26.721 14.2155 26.6038 13.9442C26.502 13.7099 26.3324 13.5114 26.1168 13.3743C25.9014 13.239 25.6515 13.1687 25.3971 13.172C25.2168 13.1693 25.0377 13.2023 24.8703 13.2691C24.7028 13.336 24.5503 13.4353 24.4214 13.5615C24.2692 13.7394 24.1546 13.9463 24.0842 14.1696C24.0139 14.3929 23.9894 14.6282 24.0122 14.8612L24.0128 14.8618Z" fill="black"/>
</svg>
