<svg width="24" height="24" viewBox="0 0 24 24" fill="none" xmlns="http://www.w3.org/2000/svg">
<path fill-rule="evenodd" clip-rule="evenodd" d="M0.43457 12.1926C0.43457 6.66151 4.91834 2.17773 10.4492 2.17773C15.9803 2.17773 20.464 6.66151 20.464 12.1926C20.464 17.7237 15.9803 22.2077 10.4492 22.2077C4.91834 22.2077 0.43457 17.7237 0.43457 12.1926Z" fill="#1E1C1C"/>
<path fill-rule="evenodd" clip-rule="evenodd" d="M16.5057 11.9954C16.5017 9.4308 14.8986 7.24352 12.6397 6.3773V17.6131C14.8986 16.7458 16.5017 14.5605 16.5057 11.9954ZM8.3305 17.611V6.37849C6.07362 7.2474 4.473 9.43153 4.46696 11.9955C4.473 14.5588 6.07362 16.7427 8.3305 17.611ZM10.4862 2.49854C5.24145 2.50056 0.992254 6.75065 0.991359 11.9954C0.992254 17.2396 5.24145 21.489 10.4862 21.4899C15.731 21.489 19.9811 17.2396 19.9825 11.9954C19.9811 6.75065 15.731 2.50056 10.4862 2.49854ZM10.463 22.3861C4.72372 22.4134 0 17.7638 0 12.1038C0 5.91803 4.72372 1.63951 10.463 1.64063H13.1525C18.8239 1.63951 24 5.91601 24 12.1038C24 17.7618 18.8239 22.3861 13.1525 22.3861H10.463Z" fill="white"/>
</svg>
