<svg width="24" height="24" viewBox="0 0 24 24" fill="none" xmlns="http://www.w3.org/2000/svg">
<path d="M0.74825 15.6161C0.641814 15.4436 0.497043 15.1678 0.409943 14.9648C-0.104724 13.7699 -0.129318 12.5334 0.305374 11.3463C0.783191 10.0445 1.69612 9.04785 2.87561 8.54035C4.35855 7.9022 5.99864 8.02802 7.41988 8.87132C8.32273 9.3893 8.96278 10.1891 9.44878 11.3197L9.4939 11.4296L9.57803 11.6481C9.59155 11.6833 9.6049 11.7176 9.61815 11.7504L0.74825 15.6161ZM3.7101 10.4586C2.65702 10.9112 2.11419 11.899 2.22572 13.0572L6.68662 11.1373C5.91952 10.2358 4.92114 9.937 3.7101 10.4586ZM8.9672 15.7887L7.24293 14.6359L7.24043 14.6384L7.14807 14.5761C6.8819 15.0081 6.46654 15.358 5.94246 15.5852C4.94535 16.0189 4.02127 15.9073 3.35767 15.3254L3.29665 15.4182C3.29602 15.4171 3.2958 15.4163 3.29474 15.4163L2.163 17.1094C2.44389 17.3046 2.7456 17.47 3.06245 17.6021C4.31267 18.1214 5.59173 18.0974 6.85179 17.5493C7.76328 17.1544 8.47844 16.552 8.9672 15.7887ZM12.7185 6.04688V15.4598L14.1818 16.053L13.3503 17.9933L11.7348 17.3206C11.3723 17.1637 11.1255 16.9234 10.9386 16.6522C10.76 16.3757 10.6264 15.9963 10.6264 15.4855V6.04688H12.7185ZM16.5097 13.0619C16.5105 12.2603 16.8644 11.5415 17.4245 11.053L15.9231 9.37878C14.9047 10.2789 14.2634 11.5941 14.2622 13.0596C14.2605 14.5255 14.9009 15.8421 15.9182 16.7445L17.418 15.0687C16.8606 14.5782 16.509 13.8616 16.5097 13.0619ZM19.1773 15.7336C18.8817 15.7327 18.597 15.6839 18.3315 15.5955L17.6145 17.7275C18.1045 17.8921 18.6294 17.9817 19.175 17.9826C21.5524 17.9849 23.5375 16.2981 23.9974 14.0556L21.7935 13.6056C21.5429 14.8211 20.4667 15.7344 19.1773 15.7336ZM19.1839 8.14628C18.6389 8.14565 18.1142 8.23423 17.6248 8.39728L18.3356 10.5312C18.6019 10.4432 18.8866 10.3946 19.1818 10.3946C20.4741 10.3959 21.5511 11.3147 21.7958 12.5336L24 12.0865C23.5464 9.84082 21.5631 8.14772 19.1839 8.14628Z" fill="white"/>
</svg>
