<svg width="24" height="24" viewBox="0 0 24 24" fill="none" xmlns="http://www.w3.org/2000/svg">
<path d="M6.58849 6.79688H4.1011C3.00206 6.84884 2.10367 7.29151 1.84427 8.20436C1.70901 8.68043 1.63457 9.20329 1.5288 9.69679C0.991106 12.2061 0.514327 14.7846 0 17.2438H19.365C20.8621 17.2438 21.89 16.9274 22.1678 15.7393C22.2969 15.1873 22.4205 14.5621 22.544 13.9556C23.0253 11.5911 23.507 9.2268 24 6.79688H6.58849Z" fill="white"/>
<path d="M16.5792 13.038C16.3107 13.3009 15.5568 13.3756 15.6339 12.7471C15.698 12.2252 16.2662 12.1142 16.8822 12.1896C16.8364 12.4751 16.7839 12.8377 16.5792 13.038ZM15.7308 11.0019C15.7052 11.1459 15.6658 11.2762 15.6339 11.414C15.9414 11.3369 16.899 11.1005 16.9913 11.5109C17.022 11.6473 16.9691 11.7922 16.9307 11.8988C16.0647 11.8167 15.3589 11.9606 15.1733 12.5774C15.049 12.9906 15.1873 13.3972 15.4521 13.5107C15.9622 13.7292 16.5826 13.4789 16.7974 13.135C16.7751 13.2541 16.754 13.3743 16.761 13.5228H17.2094C17.2142 13.0933 17.2767 12.7457 17.3428 12.3593C17.3991 12.0302 17.505 11.7044 17.4882 11.414C17.4497 10.7488 16.3477 10.9841 15.7308 11.0019ZM20.2272 13.244C19.8764 13.2516 19.702 13.0344 19.694 12.6744C19.68 12.0439 19.9565 11.3435 20.5181 11.2806C20.7796 11.2514 20.9689 11.3122 21.1604 11.3776C20.9846 12.0858 21.0481 13.2264 20.2272 13.244ZM21.3907 9.91113C21.346 10.3028 21.2863 10.6794 21.209 11.0382C19.9306 10.6336 19.1466 11.5741 19.1607 12.735C19.1635 12.9595 19.2021 13.1821 19.3425 13.341C19.5845 13.6147 20.2774 13.6801 20.6272 13.4501C20.6949 13.4056 20.7641 13.3245 20.809 13.2683C20.8427 13.226 20.8963 13.1152 20.9059 13.147C20.8876 13.2701 20.8601 13.384 20.8575 13.5228H21.3301C21.4212 12.2161 21.7029 11.0999 21.9119 9.91113H21.3907ZM8.04699 13.0501C7.76816 13.3454 7.0827 13.3409 7.02896 12.8441C7.00553 12.6279 7.08609 12.4012 7.1259 12.1775C7.16619 11.9511 7.19517 11.7339 7.23494 11.5351C7.50957 11.1998 8.31659 11.1593 8.39847 11.717C8.46953 12.2011 8.2779 12.8056 8.04699 13.0501ZM8.45908 11.0019C8.018 10.8362 7.4804 11.034 7.24736 11.2221C7.24816 11.2304 7.24181 11.2316 7.23494 11.2322C7.23894 11.2288 7.24322 11.2255 7.24736 11.2221C7.24732 11.2214 7.24727 11.2208 7.24708 11.2201C7.25103 11.1391 7.2795 11.0828 7.28346 11.0019H6.83503C6.64816 12.2452 6.42656 13.4536 6.19268 14.6499H6.71381C6.78925 14.184 6.83908 13.6925 6.94412 13.2562C7.06313 13.7151 7.84026 13.6274 8.16816 13.4501C8.84482 13.0842 9.3667 11.3429 8.45908 11.0019ZM10.9315 11.8745H9.70741C9.74614 11.5931 9.99932 11.2838 10.3982 11.2685C10.7736 11.2542 11.0424 11.4064 10.9315 11.8745ZM10.4346 10.9534C10.058 10.9824 9.73969 11.0908 9.51348 11.3291C9.23602 11.6214 9.01132 12.2677 9.07715 12.8562C9.17108 13.6958 10.2165 13.6657 11.0527 13.4622C11.0669 13.3149 11.1026 13.1889 11.1254 13.0501C10.7809 13.179 10.1828 13.3589 9.82859 13.135C9.5611 12.9659 9.55955 12.5376 9.6468 12.1654C10.2088 12.1475 10.7929 12.1509 11.3556 12.1654C11.3914 11.9016 11.4935 11.614 11.4041 11.3534C11.2862 11.0094 10.8641 10.9204 10.4346 10.9534ZM5.85334 11.0019C5.83922 11.0039 5.84016 11.0211 5.8412 11.0382C5.72637 11.897 5.57099 12.7153 5.40492 13.5228H5.92605C6.05127 12.6582 6.1947 11.8119 6.37447 11.0019H5.85334ZM19.4516 11.014C18.991 10.7837 18.6076 11.1701 18.4578 11.4018C18.5004 11.2829 18.5029 11.1238 18.5426 11.0019H18.082C17.9579 11.8675 17.8082 12.7076 17.6336 13.5228H18.1669C18.1703 13.1887 18.2359 12.9415 18.2881 12.6138C18.3996 11.9142 18.5631 11.1469 19.3789 11.3776C19.406 11.2593 19.4172 11.1251 19.4516 11.014ZM13.5978 12.9289C13.5498 12.8048 13.5373 12.5999 13.5493 12.4441C13.5763 12.0939 13.7038 11.6676 13.9008 11.4746C14.1725 11.2082 14.7091 11.2523 15.137 11.4018C15.1502 11.2576 15.1792 11.129 15.1976 10.9898C14.4957 10.8752 13.8297 10.9465 13.4766 11.317C13.1309 11.6797 12.9043 12.5134 13.0645 13.038C13.252 13.6518 14.0927 13.6852 14.7734 13.4501C14.8035 13.3267 14.8195 13.1892 14.8461 13.0622C14.4742 13.2555 13.7631 13.3559 13.5978 12.9289ZM13.3069 11.0019C12.8448 10.8153 12.4816 11.1307 12.3132 11.4261C12.3513 11.2947 12.3671 11.1407 12.398 11.0019H11.9374C11.8248 11.8751 11.6588 12.6949 11.5011 13.5228H12.0223C12.0953 13.0313 12.1268 12.3689 12.2889 11.8988C12.4184 11.5231 12.7573 11.203 13.2463 11.3776C13.2532 11.239 13.2929 11.1333 13.3069 11.0019ZM4.90802 9.98384C4.83358 10.4669 4.74972 10.9405 4.66562 11.414C4.12572 11.4197 3.57447 11.4406 3.05372 11.4018C3.15207 10.9387 3.22261 10.4477 3.3203 9.98384H2.73861C2.53033 11.1653 2.34092 12.3656 2.1084 13.5228H2.70223C2.79541 12.9292 2.88252 12.3295 3.0052 11.7654C3.51155 11.753 4.11842 11.7312 4.60501 11.7776C4.50468 12.364 4.38346 12.9295 4.2899 13.5228H4.88379C5.07456 12.3239 5.27565 11.1352 5.514 9.98384H4.90802ZM6.38661 10.5171C6.49052 10.4456 6.6243 10.1196 6.47146 9.98384C6.42303 9.94087 6.342 9.9284 6.22906 9.94751C6.12426 9.9652 6.06398 10.0008 6.02303 10.0565C5.95715 10.1462 5.89682 10.4166 5.99875 10.5171C6.09805 10.6149 6.32049 10.5626 6.38661 10.5171Z" fill="#1E1C1C"/>
</svg>
