<svg width="100" height="34" viewBox="0 0 100 34" fill="none" xmlns="http://www.w3.org/2000/svg">
<path d="M26.2217 13.8851V12.52H33.0769V13.8851H30.4394V21.5334H28.9565V13.8851H26.2217ZM34.9853 21.5334V15.0881H36.4013V16.4844C36.5026 16.1644 36.6464 15.8922 36.8328 15.6678C37.0232 15.4393 37.2461 15.2647 37.5013 15.1442C37.7566 15.0237 38.0341 14.9634 38.3339 14.9634C38.4069 14.9634 38.4778 14.9676 38.5467 14.9759C38.6155 14.9842 38.6662 14.9987 38.6986 15.0195V16.4719C38.654 16.4511 38.5953 16.4366 38.5223 16.4283C38.4534 16.4199 38.3927 16.4158 38.34 16.4158C38.0362 16.3909 37.7667 16.4033 37.5317 16.4532C37.3008 16.5031 37.1043 16.5882 36.9422 16.7088C36.7842 16.8251 36.6647 16.9747 36.5837 17.1576C36.5026 17.3362 36.4621 17.5461 36.4621 17.7871V21.5334H34.9853ZM42.5959 21.658C42.1948 21.658 41.8343 21.5832 41.5142 21.4336C41.1981 21.2799 40.949 21.0617 40.7667 20.7791C40.5884 20.4924 40.4992 20.1454 40.4992 19.7382C40.4992 19.0276 40.7484 18.4915 41.2468 18.13C41.7492 17.7684 42.5494 17.5793 43.6473 17.5627L44.5832 17.5378V17.1015C44.5832 16.7607 44.484 16.4947 44.2854 16.3036C44.091 16.1083 43.7871 16.0127 43.3738 16.0169C43.07 16.021 42.7904 16.0958 42.5352 16.2413C42.284 16.3825 42.1179 16.6215 42.0368 16.9581H40.7788C40.8031 16.5176 40.9267 16.1499 41.1495 15.8548C41.3764 15.5556 41.6864 15.3333 42.0794 15.1878C42.4724 15.0382 42.9262 14.9634 43.4407 14.9634C44.0404 14.9634 44.5285 15.0445 44.9053 15.2065C45.2821 15.3686 45.5597 15.6034 45.7379 15.9109C45.9162 16.2142 46.0053 16.582 46.0053 17.0142V21.5334H44.7595L44.644 20.374C44.4171 20.8602 44.1295 21.1968 43.781 21.3838C43.4367 21.5666 43.0416 21.658 42.5959 21.658ZM43.076 20.6295C43.2584 20.6295 43.4387 20.5963 43.6169 20.5298C43.7952 20.4591 43.9573 20.3656 44.1031 20.2493C44.249 20.1288 44.3644 19.9958 44.4495 19.8504C44.5387 19.7049 44.5832 19.5533 44.5832 19.3953V18.3793L43.8114 18.3918C43.4306 18.3959 43.0984 18.4375 42.8147 18.5164C42.5311 18.5954 42.3083 18.7221 42.1462 18.8967C41.9882 19.0671 41.9092 19.2956 41.9092 19.5823C41.9092 19.9106 42.0206 20.1683 42.2434 20.3553C42.4663 20.5381 42.7438 20.6295 43.076 20.6295ZM51.1326 21.658C50.3021 21.658 49.6497 21.3651 49.1757 20.7791C48.7017 20.1932 48.4647 19.36 48.4647 18.2796C48.4647 17.6064 48.5599 17.0225 48.7503 16.528C48.9448 16.0293 49.2284 15.645 49.6011 15.3748C49.9779 15.1006 50.4439 14.9634 50.9989 14.9634C51.2583 14.9634 51.4932 14.9967 51.7039 15.0632C51.9186 15.1255 52.1091 15.2086 52.2752 15.3125C52.4413 15.4164 52.5811 15.5307 52.6945 15.6553C52.812 15.78 52.9032 15.9047 52.968 16.0293V12.2706H54.4508V21.5334H53.3569L53.1928 20.2119C53.1442 20.3656 53.0713 20.5277 52.9741 20.6981C52.8809 20.8643 52.7533 21.0201 52.5912 21.1656C52.4332 21.3111 52.2347 21.4295 51.9956 21.5209C51.7566 21.6123 51.4689 21.658 51.1326 21.658ZM51.4365 20.5423C51.9673 20.5423 52.3542 20.3656 52.5973 20.0124C52.8444 19.655 52.968 19.065 52.968 18.2422C52.9639 17.7726 52.9072 17.3778 52.7978 17.0578C52.6925 16.7378 52.5284 16.4968 52.3055 16.3348C52.0868 16.1727 51.8032 16.0917 51.4547 16.0917C51.0091 16.0917 50.6424 16.26 50.3547 16.5966C50.0671 16.9332 49.9232 17.4817 49.9232 18.2422C49.9232 18.9985 50.0549 19.572 50.3183 19.9626C50.5816 20.349 50.9544 20.5423 51.4365 20.5423ZM58.8079 15.0881V21.5334H57.3858V15.0881H58.8079ZM58.8261 12.5262V13.9599H57.3615V12.5262H58.8261ZM61.7476 21.5334V15.0881H63.1941V16.0106C63.2913 15.8444 63.4228 15.6844 63.5891 15.5307C63.7592 15.3769 63.9675 15.2523 64.2151 15.1567C64.462 15.0611 64.7515 15.0133 65.0841 15.0133C65.4731 15.0133 65.8333 15.0922 66.1659 15.2502C66.5018 15.4081 66.7714 15.6553 66.9742 15.9919C67.1808 16.3285 67.2841 16.7628 67.2841 17.2947V21.5334H65.8012V17.4755C65.8012 17.0516 65.6874 16.7378 65.4609 16.5342C65.2338 16.3264 64.9482 16.2226 64.604 16.2226C64.3686 16.2226 64.146 16.2641 63.9355 16.3472C63.7244 16.4262 63.5526 16.5488 63.4189 16.715C63.2891 16.8771 63.2244 17.0807 63.2244 17.3259V21.5334H61.7476ZM72.7526 23.6652C71.6952 23.6652 70.883 23.5197 70.3156 23.2288C69.7487 22.938 69.4648 22.539 69.4648 22.032C69.4648 21.8035 69.5195 21.6123 69.6289 21.4586C69.7383 21.3048 69.8681 21.1781 70.0178 21.0783C70.1681 20.9786 70.3057 20.9017 70.4311 20.8477C70.557 20.7937 70.6377 20.7542 70.6742 20.7293C70.6057 20.6877 70.5145 20.6337 70.4007 20.5672C70.2874 20.5007 70.1841 20.4093 70.0907 20.2929C70.0018 20.1766 69.957 20.0249 69.957 19.8379C69.957 19.6218 70.0565 19.4224 70.2548 19.2395C70.4576 19.0566 70.7592 18.9257 71.1603 18.8468C70.7675 18.6515 70.4659 18.3876 70.2548 18.0552C70.0443 17.7227 69.9388 17.3778 69.9388 17.0204C69.9388 16.5966 70.0587 16.2329 70.2974 15.9296C70.5405 15.6263 70.8769 15.3935 71.3062 15.2315C71.7399 15.0694 72.2405 14.9884 72.8073 14.9884C73.2289 14.9884 73.5775 15.0361 73.8526 15.1317C74.1283 15.2273 74.3858 15.3561 74.6244 15.5182C74.7057 15.4849 74.8189 15.4393 74.9648 15.3811C75.115 15.3187 75.2769 15.2523 75.451 15.1816C75.6255 15.1068 75.7913 15.0361 75.9493 14.9697C76.1117 14.899 76.2493 14.8409 76.3626 14.7951L76.3504 16.048L75.2626 16.2475C75.3156 16.368 75.3559 16.4989 75.3841 16.6402C75.4167 16.7815 75.4327 16.9061 75.4327 17.0142C75.4327 17.3882 75.3294 17.7352 75.1228 18.0552C74.9206 18.371 74.6145 18.6245 74.2051 18.8156C73.8001 19.0068 73.2935 19.1024 72.6858 19.1024C72.625 19.1024 72.5421 19.1003 72.4366 19.0961C72.3316 19.092 72.2465 19.0878 72.1813 19.0837C71.8532 19.0961 71.6283 19.1356 71.5068 19.2021C71.3852 19.2686 71.3244 19.3413 71.3244 19.4203C71.3244 19.5325 71.4156 19.6073 71.5979 19.6447C71.7802 19.6821 72.072 19.7153 72.4731 19.7444C72.615 19.7527 72.8012 19.7631 73.0322 19.7756C73.2631 19.788 73.5206 19.8046 73.804 19.8254C74.5211 19.8712 75.0642 20.0561 75.4327 20.3802C75.8018 20.7002 75.9858 21.1157 75.9858 21.6269C75.9858 22.2211 75.7184 22.7094 75.1836 23.0917C74.6487 23.474 73.8388 23.6652 72.7526 23.6652ZM73.0018 22.7738C73.5327 22.7738 73.9255 22.699 74.1808 22.5494C74.436 22.3998 74.5637 22.1795 74.5637 21.8887C74.5637 21.6643 74.4769 21.4814 74.3023 21.3401C74.1283 21.1989 73.8692 21.1157 73.5244 21.0908L71.9383 20.9911C71.7642 20.9786 71.5979 21.0119 71.4399 21.0908C71.2863 21.1656 71.1604 21.2716 71.0631 21.4087C70.9659 21.5417 70.9173 21.6892 70.9173 21.8513C70.9173 22.1546 71.0874 22.3832 71.4278 22.5369C71.7681 22.6949 72.2929 22.7738 73.0018 22.7738ZM72.7344 18.211C73.1195 18.211 73.4316 18.1113 73.6703 17.9118C73.9095 17.7082 74.0289 17.4215 74.0289 17.0516C74.0289 16.6693 73.9095 16.3722 73.6703 16.1602C73.4316 15.9442 73.1195 15.8361 72.7344 15.8361C72.3416 15.8361 72.0233 15.9442 71.7802 16.1602C71.5416 16.3763 71.4217 16.6735 71.4217 17.0516C71.4217 17.409 71.5371 17.6915 71.7681 17.8993C71.999 18.1071 72.3211 18.211 72.7344 18.211Z" fill="white"/>
<path d="M78.7881 21.5334V12.52H82.0212C82.6616 12.52 83.2345 12.6343 83.7411 12.8628C84.2478 13.0872 84.6467 13.4197 84.9384 13.8601C85.2339 14.3006 85.382 14.8388 85.382 15.4746C85.382 16.073 85.2522 16.5841 84.9931 17.008C84.7339 17.4318 84.3693 17.756 83.8991 17.9804C83.4334 18.2048 82.8842 18.317 82.2522 18.317H80.5748V21.5334H78.7881ZM80.5566 16.9082H82.2036C82.6494 16.9082 83.0141 16.7628 83.2975 16.4719C83.5809 16.1768 83.7229 15.8133 83.7229 15.3811C83.7229 14.9323 83.5732 14.577 83.2732 14.3152C82.9732 14.0492 82.6085 13.9162 82.1792 13.9162H80.5566V16.9082ZM87.5859 21.5334V15.0881H89.2936V16.6153C89.3953 16.287 89.5367 16.0003 89.719 15.7551C89.9058 15.5057 90.1306 15.3125 90.3936 15.1754C90.6572 15.0341 90.9549 14.9634 91.287 14.9634C91.3439 14.9634 91.3964 14.9676 91.445 14.9759C91.498 14.98 91.5362 14.9884 91.5605 15.0008V16.7337C91.524 16.7171 91.4798 16.7067 91.4268 16.7025C91.3781 16.6984 91.3339 16.6942 91.2931 16.6901C90.945 16.661 90.6472 16.6714 90.3997 16.7212C90.1527 16.7711 89.9522 16.8563 89.798 16.9768C89.6444 17.0973 89.5328 17.2448 89.4638 17.4194C89.3953 17.5939 89.3605 17.7892 89.3605 18.0053V21.5334H87.5859ZM96.2925 21.658C95.6765 21.658 95.14 21.523 94.682 21.2529C94.2284 20.9827 93.8759 20.6005 93.6246 20.1059C93.3776 19.6114 93.2538 19.0255 93.2538 18.3481C93.2538 17.6708 93.3776 17.0786 93.6246 16.5716C93.8759 16.0646 94.2284 15.6699 94.682 15.3873C95.14 15.1047 95.6787 14.9634 96.2986 14.9634C96.9185 14.9634 97.4555 15.1027 97.9091 15.3811C98.3627 15.6553 98.7135 16.0459 98.9605 16.5529C99.2074 17.0599 99.3312 17.6583 99.3312 18.3481C99.3312 18.9964 99.2096 19.5699 98.9665 20.0685C98.7273 20.5631 98.3809 20.9516 97.9273 21.2342C97.4776 21.5168 96.9328 21.658 96.2925 21.658ZM96.2986 20.3054C96.6107 20.3054 96.8616 20.2119 97.0522 20.0249C97.2428 19.8379 97.3804 19.5927 97.4654 19.2894C97.5544 18.9818 97.5991 18.6473 97.5991 18.2858C97.5991 17.9451 97.5588 17.623 97.4776 17.3196C97.4008 17.0163 97.2671 16.7711 97.0765 16.5841C96.8859 16.3971 96.6268 16.3036 96.2986 16.3036C95.9864 16.3036 95.7334 16.393 95.5389 16.5716C95.3483 16.7462 95.2085 16.9851 95.1196 17.2885C95.0306 17.5877 94.9859 17.9201 94.9859 18.2858C94.9859 18.6224 95.0262 18.9465 95.1074 19.2582C95.1886 19.5657 95.324 19.8171 95.5146 20.0124C95.7052 20.2078 95.9665 20.3054 96.2986 20.3054Z" fill="white"/>
<path d="M7.58753 7.32384L4.28516 6.41626V15.2843L7.58753 16.1918V7.32384Z" fill="white"/>
<path d="M11.8727 12.3557L8.57031 11.4481V21.8521L11.8727 22.7596V12.3557Z" fill="white"/>
<path d="M16.1578 16.2286L12.8555 15.321V28.9708L16.1578 29.8783V16.2286Z" fill="white"/>
<path d="M20.442 8.45134L17.1396 7.54376V24.4103L20.442 25.3179V8.45134Z" fill="white"/>
<path d="M3.30238 9.39214L0 8.48456V16.4542L3.30238 17.3617V9.39214Z" fill="white"/>
</svg>
