<svg width="165" height="19" viewBox="0 0 165 19" fill="none" xmlns="http://www.w3.org/2000/svg">
<g clip-path="url(#clip0_275_1681)">
<path d="M2.73724 0.328125H15.1212V3.42413H4.05724C3.83324 3.42413 3.64124 3.49613 3.48124 3.64013C3.33724 3.78413 3.26524 3.96013 3.26524 4.16813V7.31213C3.26524 7.53613 3.34524 7.72813 3.50524 7.88813C3.66524 8.04813 3.84924 8.12813 4.05724 8.12813H13.0092C13.7452 8.12813 14.3692 8.39213 14.8812 8.92013C15.4092 9.43213 15.6732 10.0561 15.6732 10.7921V16.3361C15.6732 17.0881 15.4092 17.7201 14.8812 18.2321C14.3692 18.7441 13.7452 19.0001 13.0092 19.0001H0.601242V15.9041H11.6652C11.8892 15.9041 12.0732 15.8321 12.2172 15.6881C12.3772 15.5441 12.4572 15.3681 12.4572 15.1601V12.0161C12.4572 11.8081 12.3772 11.6241 12.2172 11.4641C12.0732 11.3041 11.8892 11.2241 11.6652 11.2241H2.73724C2.00124 11.2241 1.36924 10.9681 0.841242 10.4561C0.329242 9.92813 0.0732422 9.28813 0.0732422 8.53613V2.99213C0.0732422 2.24013 0.329242 1.60813 0.841242 1.09613C1.36924 0.584125 2.00124 0.328125 2.73724 0.328125ZM18.8467 0.328125H22.0387V19.0001H18.8467V0.328125ZM23.8777 0.328125H27.8617L33.1417 7.57613L38.4457 0.328125H42.4057L35.1337 9.66413L42.4057 19.0001H38.4457L33.1417 11.7521L27.8617 19.0001H23.8777L31.1497 9.66413L23.8777 0.328125ZM50.198 0.328125H65.798V3.42413H59.606V19.0001H56.39V3.42413H50.198V0.328125ZM67.6436 0.328125H80.5796C81.3156 0.328125 81.9396 0.584125 82.4516 1.09613C82.9796 1.60813 83.2436 2.24013 83.2436 2.99213V9.92813C83.2436 10.6641 82.9796 11.2961 82.4516 11.8241C81.9396 12.3361 81.3156 12.5921 80.5796 12.5921H80.4116L84.6836 19.0001H80.7716L76.5236 12.5921H70.8356V19.0001H67.6436V0.328125ZM70.8356 9.49613H79.2356C79.4596 9.49613 79.6436 9.42413 79.7876 9.28013C79.9476 9.13613 80.0276 8.96013 80.0276 8.75213V4.16813C80.0276 3.96013 79.9476 3.78413 79.7876 3.64013C79.6436 3.49613 79.4596 3.42413 79.2356 3.42413H70.8356V9.49613ZM91.793 0.328125H96.857L103.601 19.0001H100.241L98.633 14.6321H90.041L88.433 19.0001H85.073L91.793 0.328125ZM91.193 11.5361H97.481L94.337 2.96813L91.193 11.5361ZM108.64 3.42413V15.9041H115.768C116.328 15.9041 116.808 15.7121 117.208 15.3281C117.624 14.9281 117.832 14.4481 117.832 13.8881V5.46413C117.832 4.90413 117.624 4.42413 117.208 4.02413C116.808 3.62413 116.328 3.42413 115.768 3.42413H108.64ZM105.448 0.328125H117.04C118.128 0.328125 119.064 0.728125 119.848 1.52813C120.648 2.31213 121.048 3.24813 121.048 4.33613V14.9921C121.048 16.0801 120.648 17.0241 119.848 17.8241C119.064 18.6081 118.128 19.0001 117.04 19.0001H105.448V0.328125ZM124.221 0.328125H127.413V19.0001H124.221V0.328125ZM130.596 0.328125H133.788L142.98 13.7681V0.328125H146.196V19.0001H142.98L133.788 5.56013V19.0001H130.596V0.328125ZM152.034 0.328125H162.306C163.042 0.328125 163.666 0.584125 164.178 1.09613C164.706 1.60813 164.97 2.24013 164.97 2.99213V5.08013H161.754V4.16813C161.754 3.96013 161.674 3.78413 161.514 3.64013C161.37 3.49613 161.186 3.42413 160.962 3.42413H153.354C153.13 3.42413 152.938 3.49613 152.778 3.64013C152.634 3.78413 152.562 3.96013 152.562 4.16813V15.1601C152.562 15.3681 152.634 15.5441 152.778 15.6881C152.938 15.8321 153.13 15.9041 153.354 15.9041H160.962C161.186 15.9041 161.37 15.8321 161.514 15.6881C161.674 15.5441 161.754 15.3681 161.754 15.1601V11.9681H157.602V8.87213H164.97V16.3361C164.97 17.0881 164.706 17.7201 164.178 18.2321C163.666 18.7441 163.042 19.0001 162.306 19.0001H152.034C151.298 19.0001 150.666 18.7441 150.138 18.2321C149.626 17.7201 149.37 17.0881 149.37 16.3361V2.99213C149.37 2.24013 149.626 1.60813 150.138 1.09613C150.666 0.584125 151.298 0.328125 152.034 0.328125Z" fill="#2F3133"/>
</g>
<defs>
<clipPath id="clip0_275_1681">
<rect width="165" height="19" fill="white"/>
</clipPath>
</defs>
</svg>
