<svg width="53" height="21" viewBox="0 0 53 21" fill="none" xmlns="http://www.w3.org/2000/svg">
<path d="M2.95245 0.885498H16.6801V4.20217H4.41574C4.16817 4.20217 3.95754 4.28071 3.79126 4.43423C3.62128 4.58775 3.53998 4.77697 3.53998 4.99831V8.36497C3.53998 8.60417 3.62867 8.81124 3.80604 8.98261C3.98341 9.15397 4.18664 9.23966 4.41944 9.23966H14.3447C15.1613 9.23966 15.856 9.51813 16.4325 10.0751C17.0089 10.632 17.2971 11.3068 17.2971 12.0922V18.0294C17.2971 18.8362 17.0089 19.511 16.4325 20.0608C15.856 20.6106 15.1576 20.8819 14.3447 20.8819H0.583839V17.5653H12.8481C13.0957 17.5653 13.3064 17.4867 13.4726 17.3332C13.6426 17.1797 13.7239 16.9905 13.7239 16.7691V13.4025C13.7239 13.1811 13.6389 12.9812 13.4726 12.8098C13.3027 12.6384 13.0957 12.5528 12.8481 12.5528H2.95245C2.13582 12.5528 1.44112 12.2743 0.864673 11.7173C0.288224 11.1604 0 10.4785 0 9.67522V3.73805C0 2.93477 0.288224 2.25644 0.864673 1.70663C1.44112 1.1604 2.13582 0.885498 2.95245 0.885498Z" fill="white"/>
<path d="M19.3152 0.885498H36.6087V4.20217H29.743V20.8855H26.1772V4.20217H19.3115V0.885498H19.3152Z" fill="white"/>
<path d="M41.6118 0.885498H52.387V4.20217H43.0751C42.8276 4.20217 42.6169 4.28071 42.4506 4.43423C42.2807 4.58775 42.1994 4.77697 42.1994 4.99831V8.44351H50.0221C50.8535 8.44351 51.5593 8.72198 52.1357 9.27893C52.7122 9.83587 53.0004 10.5071 53.0004 11.2961V18.0294C53.0004 18.8184 52.7122 19.4896 52.1357 20.0465C51.5593 20.6035 50.8535 20.8819 50.0221 20.8819H41.6155C40.7989 20.8819 40.1042 20.607 39.5278 20.0608C38.9513 19.511 38.6631 18.8362 38.6631 18.0294V3.73805C38.6631 2.9312 38.9513 2.25644 39.5278 1.70663C40.1042 1.15683 40.7989 0.885498 41.6155 0.885498H41.6118ZM42.1957 11.7316V16.7691C42.1957 16.9905 42.2807 17.1797 42.447 17.3332C42.6169 17.4867 42.8239 17.5653 43.0714 17.5653H48.5514C48.799 17.5653 49.0059 17.4867 49.1759 17.3332C49.3459 17.1797 49.4272 16.9905 49.4272 16.7691V12.6063C49.4272 12.3671 49.3385 12.16 49.1611 11.9887C48.9837 11.8173 48.7805 11.7316 48.5477 11.7316H42.1883H42.1957Z" fill="white"/>
</svg>
