<svg width="24" height="24" viewBox="0 0 24 24" fill="none" xmlns="http://www.w3.org/2000/svg">
<path fill-rule="evenodd" clip-rule="evenodd" d="M12.0001 17.8417C10.906 18.7017 9.59201 19.2365 8.20832 19.385C6.82459 19.5335 5.427 19.2897 4.17528 18.6815C2.92356 18.0733 1.86822 17.1251 1.12989 15.9455C0.391547 14.7658 0 13.4022 0 12.0106C0 10.6189 0.391547 9.2553 1.12989 8.07564C1.86822 6.89597 2.92356 5.94785 4.17528 5.33961C5.427 4.73138 6.82459 4.48759 8.20832 4.63611C9.592 4.78462 10.906 5.31942 12.0001 6.17939C13.0942 5.31942 14.4081 4.78462 15.7918 4.63611C17.1755 4.48759 18.5731 4.73139 19.8247 5.33962C21.0764 5.94786 22.1317 6.89599 22.87 8.07565C23.6083 9.25531 23.9998 10.6189 23.9998 12.0105C23.9998 13.4022 23.6083 14.7658 22.87 15.9454C22.1317 17.1251 21.0764 18.0732 19.8247 18.6814C18.5731 19.2897 17.1755 19.5335 15.7918 19.385C14.4081 19.2365 13.0942 18.7017 12.0001 17.8417ZM9.1674 12.0106C9.16638 10.8874 9.42089 9.77874 9.91168 8.7685C10.4024 7.75828 11.1166 6.87296 12.0001 6.17954C12.8828 6.87365 13.5964 7.75912 14.0871 8.76917C14.5778 9.77925 14.8328 10.8876 14.8328 12.0105C14.8328 13.1335 14.5778 14.2418 14.0871 15.2519C13.5964 16.262 12.8828 17.1474 12.0001 17.8416C11.1166 17.1481 10.4024 16.2628 9.91168 15.2526C9.42089 14.2424 9.16638 13.1337 9.1674 12.0106ZM13.2135 17.7629C14.0247 18.2381 14.9303 18.5382 15.8718 18.6392C17.1156 18.7727 18.3718 18.5536 19.497 18.0069C20.6221 17.4601 21.5707 16.6079 22.2343 15.5475C22.8979 14.4872 23.2498 13.2615 23.2498 12.0106C23.2498 10.7596 22.8979 9.5339 22.2343 8.47354C21.5707 7.41318 20.6221 6.56092 19.497 6.0142C18.3718 5.46747 17.1156 5.24833 15.8718 5.38182C14.9303 5.48288 14.0247 5.78293 13.2135 6.25813C13.8445 6.8942 14.3682 7.63144 14.7617 8.44144C15.302 9.55365 15.5828 10.774 15.5828 12.0105C15.5828 13.247 15.302 14.4674 14.7617 15.5796C14.3682 16.3896 13.8445 17.1269 13.2135 17.7629Z" fill="white"/>
<path d="M23.2924 16.3674V16.6062H23.2398V16.3674H23.1435V16.3188H23.3887V16.3674H23.2924Z" fill="white"/>
<path d="M23.7685 16.3183V16.6062H23.7154V16.3885L23.6344 16.5762H23.5793L23.4983 16.389V16.6062H23.4452V16.3183H23.5204L23.6069 16.5163L23.6933 16.3183H23.7685Z" fill="white"/>
</svg>
