<svg width="24" height="24" viewBox="0 0 24 24" fill="none" xmlns="http://www.w3.org/2000/svg">
<path d="M15.4502 16.5203L12.4402 13.5103C12.3302 13.4003 12.2002 13.3803 12.1302 13.3803C12.0602 13.3803 11.9302 13.4003 11.8202 13.5103L8.80016 16.5303C8.46016 16.8703 7.93016 17.4203 6.16016 17.4203L9.87016 21.1203C10.4327 21.6821 11.1952 21.9977 11.9902 21.9977C12.7852 21.9977 13.5477 21.6821 14.1102 21.1203L17.8302 17.4103C16.9202 17.4103 16.1602 17.2303 15.4502 16.5203ZM8.80016 7.47029L11.8202 10.4903C11.9002 10.5703 12.0202 10.6203 12.1302 10.6203C12.2402 10.6203 12.3602 10.5703 12.4402 10.4903L15.4302 7.50029C16.1402 6.76029 16.9502 6.59029 17.8602 6.59029L14.1402 2.88029C13.5777 2.31849 12.8152 2.00293 12.0202 2.00293C11.2252 2.00293 10.4627 2.31849 9.90016 2.88029L6.19016 6.58029C7.95016 6.58029 8.49016 7.16029 8.80016 7.47029Z" fill="white"/>
<path d="M21.1093 9.85031L18.8593 7.59031H17.5993C17.0593 7.59031 16.5193 7.81031 16.1493 8.20031L13.1493 11.2003C12.8693 11.4803 12.4993 11.6203 12.1293 11.6203C11.7483 11.6149 11.3836 11.4648 11.1093 11.2003L8.08931 8.17031C7.70931 7.79031 7.18931 7.57031 6.63931 7.57031H5.16931L2.87931 9.87031C2.31751 10.4328 2.00195 11.1953 2.00195 11.9903C2.00195 12.7853 2.31751 13.5478 2.87931 14.1103L5.16931 16.4103H6.64931C7.18931 16.4103 7.70931 16.1903 8.09931 15.8103L11.1193 12.7903C11.3993 12.5103 11.7693 12.3703 12.1393 12.3703C12.5093 12.3703 12.8793 12.5103 13.1593 12.7903L16.1693 15.8003C16.5493 16.1803 17.0693 16.4003 17.6193 16.4003H18.8793L21.1293 14.1403C21.6935 13.5677 22.0081 12.795 22.0043 11.9912C22.0006 11.1873 21.6788 10.4177 21.1093 9.85031Z" fill="white"/>
</svg>
