<svg width="281" height="17" viewBox="0 0 281 17" fill="none" xmlns="http://www.w3.org/2000/svg">
<path d="M2.82669 1.5H12.2554V3.82167H3.83174C3.66169 3.82167 3.51703 3.87665 3.40282 3.98411C3.28607 4.09157 3.23023 4.22403 3.23023 4.37897V6.73563C3.23023 6.90307 3.29114 7.04802 3.41297 7.16798C3.53479 7.28793 3.67438 7.34791 3.83428 7.34791H10.6513C11.2122 7.34791 11.6894 7.54284 12.0853 7.9327C12.4812 8.32256 12.6792 8.79489 12.6792 9.3447V13.5007C12.6792 14.0655 12.4812 14.5378 12.0853 14.9227C11.6894 15.3076 11.2097 15.4975 10.6513 15.4975H1.19983V13.1758H9.62346C9.7935 13.1758 9.93817 13.1209 10.0524 13.0134C10.1691 12.9059 10.225 12.7735 10.225 12.6185V10.2619C10.225 10.1069 10.1666 9.96698 10.0524 9.84702C9.93563 9.72706 9.7935 9.66708 9.62346 9.66708H2.82669C2.26579 9.66708 1.78865 9.47215 1.39272 9.08229C0.996792 8.69243 0.798828 8.2151 0.798828 7.6528V3.49679C0.798828 2.93449 0.996792 2.45966 1.39272 2.07479C1.78865 1.69243 2.26579 1.5 2.82669 1.5Z" fill="white"/>
<path d="M14.065 1.5H25.9429V3.82167H21.2273V15.5H18.7781V3.82167H14.0625V1.5H14.065Z" fill="white"/>
<path d="M29.3788 1.5H36.7797V3.82167H30.3839C30.2138 3.82167 30.0692 3.87665 29.955 3.98411C29.8382 4.09157 29.7824 4.22403 29.7824 4.37897V6.79061H35.1553C35.7264 6.79061 36.2111 6.98554 36.6071 7.3754C37.003 7.76526 37.201 8.2351 37.201 8.7874V13.5007C37.201 14.053 37.003 14.5228 36.6071 14.9127C36.2111 15.3026 35.7264 15.4975 35.1553 15.4975H29.3814C28.8205 15.4975 28.3433 15.3051 27.9474 14.9227C27.5515 14.5378 27.3535 14.0655 27.3535 13.5007V3.49679C27.3535 2.93199 27.5515 2.45966 27.9474 2.07479C28.3433 1.68993 28.8205 1.5 29.3814 1.5H29.3788ZM29.7798 9.09229V12.6185C29.7798 12.7735 29.8382 12.9059 29.9524 13.0134C30.0692 13.1209 30.2113 13.1758 30.3814 13.1758H34.1452C34.3153 13.1758 34.4574 13.1209 34.5741 13.0134C34.6909 12.9059 34.7467 12.7735 34.7467 12.6185V9.70457C34.7467 9.53713 34.6858 9.39218 34.564 9.27222C34.4421 9.15227 34.3026 9.09229 34.1427 9.09229H29.7748H29.7798Z" fill="white"/>
<path d="M53.2012 2.5V14.5" stroke="white"/>
<path d="M73.2752 2.108H76.2292L80.1632 13H78.2032L77.2652 10.452H72.2532L71.3152 13H69.3552L73.2752 2.108ZM72.9252 8.646H76.5932L74.7592 3.648L72.9252 8.646ZM91.0927 2.108H99.4927V3.914H92.9547V6.658H97.9387V8.464H92.9547V11.194H99.4927V13H91.0927V2.108ZM103.49 2.108H105.352V11.194H111.89V13H103.49V2.108ZM115.683 2.108H117.545V13H115.683V2.108ZM121.418 2.108H130.518V3.914H126.906V13H125.03V3.914H121.418V2.108ZM134.394 2.108H142.794V3.914H136.256V6.658H141.24V8.464H136.256V11.194H142.794V13H134.394V2.108ZM155.706 3.914V11.194H159.864C160.191 11.194 160.471 11.082 160.704 10.858C160.947 10.6247 161.068 10.3447 161.068 10.018V5.104C161.068 4.77733 160.947 4.49733 160.704 4.264C160.471 4.03067 160.191 3.914 159.864 3.914H155.706ZM153.844 2.108H160.606C161.241 2.108 161.787 2.34133 162.244 2.808C162.711 3.26533 162.944 3.81133 162.944 4.446V10.662C162.944 11.2967 162.711 11.8473 162.244 12.314C161.787 12.7713 161.241 13 160.606 13H153.844V2.108ZM169.149 2.108H175.141C175.561 2.108 175.925 2.262 176.233 2.57C176.541 2.878 176.695 3.242 176.695 3.662V11.446C176.695 11.866 176.541 12.23 176.233 12.538C175.925 12.846 175.561 13 175.141 13H169.149C168.729 13 168.365 12.846 168.057 12.538C167.749 12.23 167.595 11.866 167.595 11.446V3.662C167.595 3.242 167.749 2.878 168.057 2.57C168.365 2.262 168.729 2.108 169.149 2.108ZM169.919 3.914C169.788 3.914 169.676 3.956 169.583 4.04C169.499 4.124 169.457 4.22667 169.457 4.348V10.76C169.457 10.8813 169.499 10.984 169.583 11.068C169.676 11.152 169.788 11.194 169.919 11.194H174.357C174.488 11.194 174.595 11.152 174.679 11.068C174.772 10.984 174.819 10.8813 174.819 10.76V4.348C174.819 4.22667 174.772 4.124 174.679 4.04C174.595 3.956 174.488 3.914 174.357 3.914H169.919ZM187.614 2.108H196.714V3.914H193.102V13H191.226V3.914H187.614V2.108ZM200.591 2.108H208.137C208.566 2.108 208.93 2.25733 209.229 2.556C209.537 2.85467 209.691 3.22333 209.691 3.662V7.708C209.691 8.13733 209.537 8.506 209.229 8.814C208.93 9.11267 208.566 9.262 208.137 9.262H208.039L210.531 13H208.249L205.771 9.262H202.453V13H200.591V2.108ZM202.453 7.456H207.353C207.483 7.456 207.591 7.414 207.675 7.33C207.768 7.246 207.815 7.14333 207.815 7.022V4.348C207.815 4.22667 207.768 4.124 207.675 4.04C207.591 3.956 207.483 3.914 207.353 3.914H202.453V7.456ZM217.478 2.108H220.432L224.366 13H222.406L221.468 10.452H216.456L215.518 13H213.558L217.478 2.108ZM217.128 8.646H220.796L218.962 3.648L217.128 8.646ZM230.105 3.914V11.194H234.263C234.59 11.194 234.87 11.082 235.103 10.858C235.346 10.6247 235.467 10.3447 235.467 10.018V5.104C235.467 4.77733 235.346 4.49733 235.103 4.264C234.87 4.03067 234.59 3.914 234.263 3.914H230.105ZM228.243 2.108H235.005C235.64 2.108 236.186 2.34133 236.643 2.808C237.11 3.26533 237.343 3.81133 237.343 4.446V10.662C237.343 11.2967 237.11 11.8473 236.643 12.314C236.186 12.7713 235.64 13 235.005 13H228.243V2.108ZM241.995 2.108H243.857V13H241.995V2.108ZM248.513 2.108H250.375L255.737 9.948V2.108H257.613V13H255.737L250.375 5.16V13H248.513V2.108ZM263.819 2.108H269.811C270.24 2.108 270.604 2.25733 270.903 2.556C271.211 2.85467 271.365 3.22333 271.365 3.662V4.88H269.489V4.348C269.489 4.22667 269.442 4.124 269.349 4.04C269.265 3.956 269.157 3.914 269.027 3.914H264.589C264.458 3.914 264.346 3.956 264.253 4.04C264.169 4.124 264.127 4.22667 264.127 4.348V10.76C264.127 10.8813 264.169 10.984 264.253 11.068C264.346 11.152 264.458 11.194 264.589 11.194H269.027C269.157 11.194 269.265 11.152 269.349 11.068C269.442 10.984 269.489 10.8813 269.489 10.76V8.898H267.067V7.092H271.365V11.446C271.365 11.8847 271.211 12.2533 270.903 12.552C270.604 12.8507 270.24 13 269.811 13H263.819C263.389 13 263.021 12.8507 262.713 12.552C262.414 12.2533 262.265 11.8847 262.265 11.446V3.662C262.265 3.22333 262.414 2.85467 262.713 2.556C263.021 2.25733 263.389 2.108 263.819 2.108Z" fill="white"/>
</svg>
