<svg width="353" height="177" viewBox="0 0 353 177" fill="none" xmlns="http://www.w3.org/2000/svg">
<g clip-path="url(#clip0_468_290)">
<g filter="url(#filter0_f_468_290)">
<circle cx="178.5" cy="86.5" r="17.5" fill="#4256E8" fill-opacity="0.25"/>
</g>
<g filter="url(#filter1_f_468_290)">
<circle cx="178.907" cy="88.535" r="14.6512" fill="#4256E8" fill-opacity="0.75"/>
</g>
<rect width="196.759" height="49.9974" transform="matrix(0.999327 -0.0366687 0.0332155 0.999448 150.703 72.165)" fill="url(#paint0_linear_468_290)"/>
<path d="M340 90.8456L347.514 65L349 116L340 90.8456Z" fill="#0B0C11"/>
<path d="M152.448 122.134L151.646 99.1484L191.621 97.7525L152.448 122.134Z" fill="url(#paint1_linear_468_290)"/>
<rect width="177.248" height="49.9925" transform="matrix(0.999193 -0.0401669 0.0303214 0.99954 13 54.9014)" fill="url(#paint2_linear_468_290)"/>
<path d="M20.8182 80.1544L14.2907 106L13 55L20.8182 80.1544Z" fill="#0B0C11"/>
<path d="M60.5714 67.8368L72.4442 67.4222L72.5296 69.8687L61.6642 70.2481C61.3444 70.2593 61.0765 70.3807 60.8604 70.6124C60.6598 70.8276 60.5648 71.087 60.5754 71.3908L60.6952 74.8208C60.7058 75.1246 60.827 75.3845 61.0586 75.6005C61.2903 75.8166 61.5581 75.9193 61.8619 75.9087L70.5926 75.6038C71.3441 75.5776 71.9847 75.8114 72.5142 76.3052C73.0438 76.799 73.3217 77.4217 73.3479 78.1732L73.5305 83.402C73.5567 84.1536 73.323 84.7941 72.8291 85.3237C72.3353 85.8532 71.7126 86.1311 70.9611 86.1574L59.0883 86.572L59.0029 84.1255L69.8683 83.7461C70.1881 83.7349 70.4483 83.6217 70.6489 83.4066C70.865 83.1749 70.9677 82.9072 70.9571 82.6034L70.8373 79.1734C70.8267 78.8696 70.7055 78.6097 70.4739 78.3937C70.2422 78.1776 69.9744 78.0749 69.6706 78.0855L60.9399 78.3904C60.1884 78.4166 59.5478 78.1828 59.0183 77.689C58.4887 77.1952 58.2108 76.5725 58.1846 75.821L58.002 70.5922C57.9757 69.8406 58.2095 69.2001 58.7033 68.6705C59.1972 68.141 59.8198 67.8631 60.5714 67.8368Z" fill="#F7F7FF"/>
<path d="M76.4134 67.2836L78.9558 67.1948L79.4835 82.3056C79.4941 82.6094 79.6072 82.8696 79.8229 83.0862C80.0541 83.2863 80.3295 83.3807 80.6493 83.3696L88.3726 83.0999C88.6924 83.0887 88.9526 82.9755 89.1533 82.7604C89.3693 82.5287 89.472 82.261 89.4614 81.9572L88.9337 66.8464L91.4762 66.7576L92.0349 82.7558C92.06 83.4754 91.8179 84.1082 91.3087 84.6543C90.7994 85.2005 90.185 85.4861 89.4654 85.5112L79.7274 85.8513C79.0078 85.8764 78.375 85.6343 77.8289 85.1251C77.2828 84.6158 76.9972 84.0014 76.972 83.2819L76.4134 67.2836Z" fill="#F7F7FF"/>
<path d="M94.9177 66.6374L107.318 66.2044C108.07 66.1781 108.71 66.4119 109.24 66.9057C109.769 67.3996 110.047 68.0222 110.073 68.7738L110.353 76.7849C110.379 77.5364 110.146 78.177 109.652 78.7066C109.158 79.2361 108.535 79.514 107.784 79.5403L97.9259 79.8845L98.1118 85.2093L95.5694 85.298L94.9177 66.6374ZM97.8404 77.438L106.691 77.1289C107.011 77.1178 107.271 77.0046 107.472 76.7895C107.688 76.5578 107.79 76.29 107.78 75.9862L107.56 69.6781C107.548 69.3583 107.427 69.0903 107.195 68.8743C106.964 68.6583 106.696 68.5555 106.392 68.5661L97.5414 68.8752L97.8404 77.438Z" fill="#F7F7FF"/>
<path d="M113.422 65.9912L127.286 65.5071L127.371 67.9536L116.05 68.349L116.248 74.0095L124.906 73.7071L124.992 76.1536L116.333 76.456L116.531 82.1166L127.852 81.7212L127.937 84.1677L114.074 84.6519L113.422 65.9912Z" fill="#F7F7FF"/>
<path d="M129.35 65.435L141.75 65.002C142.502 64.9757 143.142 65.2095 143.672 65.7033C144.201 66.1972 144.479 66.8198 144.506 67.5714L144.745 74.4312C144.771 75.1828 144.53 75.8316 144.021 76.3777C143.527 76.9072 142.912 77.1849 142.177 77.2105L142.057 77.2147L146.503 83.5194L143.433 83.6266L138.987 77.3219L132.319 77.5548L132.544 84.0069L130.001 84.0956L129.35 65.435ZM132.232 75.0843L141.083 74.7752C141.403 74.7641 141.663 74.6509 141.864 74.4358C142.08 74.2201 142.183 73.9603 142.173 73.6565L141.994 68.5476C141.984 68.2438 141.863 67.9919 141.632 67.7918C141.416 67.5752 141.148 67.4725 140.828 67.4837L131.978 67.7927L132.232 75.0843Z" fill="#F7F7FF"/>
<path d="M212 84.1221L224.928 83.6706C225.664 83.6449 226.296 83.879 226.826 84.3728C227.371 84.8661 227.657 85.4885 227.683 86.24L227.829 90.4135C227.849 90.9731 227.707 91.4904 227.403 91.9653C227.099 92.4242 226.694 92.7585 226.189 92.9683C226.708 93.1423 227.135 93.4556 227.471 93.9081C227.806 94.3447 227.984 94.8508 228.004 95.4264L228.149 99.5759C228.175 100.327 227.934 100.968 227.424 101.498C226.93 102.028 226.315 102.306 225.58 102.331L212.652 102.783L212 84.1221ZM215.57 94.9L215.734 99.5772L224.129 99.284C224.352 99.2762 224.534 99.1978 224.673 99.0489C224.828 98.8994 224.901 98.7207 224.894 98.5128L224.795 95.6826C224.784 95.3628 224.663 95.1028 224.432 94.9028C224.217 94.7022 223.957 94.6072 223.653 94.6178L215.57 94.9ZM215.462 91.8059L223.545 91.5237C223.849 91.513 224.101 91.4002 224.302 91.185C224.518 90.9534 224.62 90.6776 224.609 90.3578L224.51 87.5275C224.503 87.3197 224.417 87.1466 224.252 87.0082C224.103 86.8693 223.917 86.8038 223.693 86.8116L215.298 87.1048L215.462 91.8059Z" fill="#D4D7ED"/>
<path d="M230.762 83.4669L233.952 83.3555L234.496 98.922L245.697 98.5308L245.805 101.625L231.414 102.128L230.762 83.4669Z" fill="#D4D7ED"/>
<path d="M252.226 82.7173L257.287 82.5406L264.679 100.966L261.321 101.083L259.562 96.7739L250.975 97.0738L249.52 101.495L246.162 101.612L252.226 82.7173ZM252.018 93.9394L258.302 93.72L254.861 85.2669L252.018 93.9394Z" fill="#D4D7ED"/>
<path d="M268.536 82.1478L278.802 81.7893C279.537 81.7636 280.17 81.9977 280.699 82.4915C281.245 82.9848 281.531 83.6072 281.557 84.3587L281.635 86.5894L278.421 86.7016L278.384 85.6462C278.377 85.4384 278.291 85.2653 278.126 85.1269C277.977 84.988 277.79 84.9225 277.566 84.9303L269.963 85.1958C269.739 85.2037 269.55 85.2823 269.395 85.4318C269.256 85.5808 269.19 85.7592 269.197 85.967L269.581 96.9523C269.588 97.1602 269.666 97.3336 269.815 97.4725C269.98 97.6108 270.175 97.6761 270.399 97.6682L278.002 97.4027C278.226 97.3949 278.407 97.3165 278.546 97.1676C278.701 97.0181 278.775 96.8394 278.768 96.6315L278.731 95.6002L281.946 95.4879L282.023 97.6946C282.049 98.4461 281.807 99.087 281.297 99.6171C280.803 100.147 280.189 100.424 279.453 100.45L269.187 100.808C268.452 100.834 267.811 100.6 267.266 100.107C266.736 99.6132 266.458 98.9906 266.432 98.239L265.966 84.9031C265.94 84.1516 266.174 83.5111 266.668 82.9815C267.178 82.4514 267.8 82.1735 268.536 82.1478Z" fill="#D4D7ED"/>
<path d="M284.378 81.5946L287.568 81.4832L287.84 89.2784L294.1 89.0598L297.882 81.123L301.407 80.9999L296.984 90.4961L302.059 99.6605L298.533 99.7836L294.206 92.082L287.947 92.3486L288.219 100.144L285.029 100.255L284.378 81.5946Z" fill="#D4D7ED"/>
<g style="mix-blend-mode:plus-lighter" opacity="0.25" filter="url(#filter2_f_468_290)">
<circle cx="102" cy="76" r="18" fill="#4256E8"/>
</g>
<g style="mix-blend-mode:plus-lighter" opacity="0.25" filter="url(#filter3_f_468_290)">
<circle cx="240" cy="91" r="17" fill="white"/>
</g>
</g>
<defs>
<filter id="filter0_f_468_290" x="-19" y="-111" width="395" height="395" filterUnits="userSpaceOnUse" color-interpolation-filters="sRGB">
<feFlood flood-opacity="0" result="BackgroundImageFix"/>
<feBlend mode="normal" in="SourceGraphic" in2="BackgroundImageFix" result="shape"/>
<feGaussianBlur stdDeviation="90" result="effect1_foregroundBlur_468_290"/>
</filter>
<filter id="filter1_f_468_290" x="44.2559" y="-46.1162" width="269.303" height="269.303" filterUnits="userSpaceOnUse" color-interpolation-filters="sRGB">
<feFlood flood-opacity="0" result="BackgroundImageFix"/>
<feBlend mode="normal" in="SourceGraphic" in2="BackgroundImageFix" result="shape"/>
<feGaussianBlur stdDeviation="60" result="effect1_foregroundBlur_468_290"/>
</filter>
<filter id="filter2_f_468_290" x="4" y="-22" width="196" height="196" filterUnits="userSpaceOnUse" color-interpolation-filters="sRGB">
<feFlood flood-opacity="0" result="BackgroundImageFix"/>
<feBlend mode="normal" in="SourceGraphic" in2="BackgroundImageFix" result="shape"/>
<feGaussianBlur stdDeviation="40" result="effect1_foregroundBlur_468_290"/>
</filter>
<filter id="filter3_f_468_290" x="143" y="-6" width="194" height="194" filterUnits="userSpaceOnUse" color-interpolation-filters="sRGB">
<feFlood flood-opacity="0" result="BackgroundImageFix"/>
<feBlend mode="normal" in="SourceGraphic" in2="BackgroundImageFix" result="shape"/>
<feGaussianBlur stdDeviation="40" result="effect1_foregroundBlur_468_290"/>
</filter>
<linearGradient id="paint0_linear_468_290" x1="0" y1="24.9987" x2="196.759" y2="24.9987" gradientUnits="userSpaceOnUse">
<stop stop-color="#111536"/>
<stop offset="1" stop-color="#2A3277"/>
</linearGradient>
<linearGradient id="paint1_linear_468_290" x1="154" y1="116" x2="195.5" y2="95.5" gradientUnits="userSpaceOnUse">
<stop stop-color="#2D3996"/>
<stop offset="1" stop-color="#161B44"/>
</linearGradient>
<linearGradient id="paint2_linear_468_290" x1="0" y1="24.9963" x2="177.248" y2="24.9963" gradientUnits="userSpaceOnUse">
<stop stop-color="#4054ED"/>
<stop offset="0.425" stop-color="#4F5FD3"/>
<stop offset="1" stop-color="#2A3693"/>
</linearGradient>
<clipPath id="clip0_468_290">
<rect width="353" height="177" fill="white"/>
</clipPath>
</defs>
</svg>
