<svg width="132" height="21" viewBox="0 0 132 21" fill="none" xmlns="http://www.w3.org/2000/svg">
<path d="M0.486206 0.772461H17.3862V4.12646H10.6782V21.0005H7.19421V4.12646H0.486206V0.772461Z" fill="white"/>
<path d="M22.2716 0.772461H32.8016V4.12646H23.7016C23.4589 4.12646 23.2509 4.20446 23.0776 4.36046C22.9216 4.51646 22.8436 4.70713 22.8436 4.93246V8.41646H30.4876C31.3022 8.41646 31.9869 8.70246 32.5416 9.27446C33.1136 9.82913 33.3996 10.5051 33.3996 11.3025V18.1145C33.3996 18.9118 33.1136 19.5965 32.5416 20.1685C31.9869 20.7231 31.3022 21.0005 30.4876 21.0005H22.2716C21.4742 21.0005 20.7896 20.7231 20.2176 20.1685C19.6629 19.6138 19.3856 18.9291 19.3856 18.1145V3.65846C19.3856 2.84379 19.6629 2.15913 20.2176 1.60446C20.7896 1.04979 21.4742 0.772461 22.2716 0.772461ZM22.8436 11.7445V16.8405C22.8436 17.0658 22.9216 17.2565 23.0776 17.4125C23.2509 17.5685 23.4589 17.6465 23.7016 17.6465H29.0576C29.3002 17.6465 29.4996 17.5685 29.6556 17.4125C29.8289 17.2565 29.9156 17.0658 29.9156 16.8405V12.6285C29.9156 12.3858 29.8289 12.1778 29.6556 12.0045C29.4822 11.8311 29.2829 11.7445 29.0576 11.7445H22.8436Z" fill="white"/>
<path d="M47.8212 0.772461H60.0932V2.74846H48.5492C48.1159 2.74846 47.7432 2.90446 47.4312 3.21646C47.1192 3.51113 46.9632 3.87513 46.9632 4.30846V8.31246C46.9632 8.74579 47.1192 9.11846 47.4312 9.43046C47.7432 9.74246 48.1159 9.89846 48.5492 9.89846H57.7792C58.5766 9.89846 59.2526 10.1845 59.8072 10.7565C60.3792 11.3111 60.6652 11.9871 60.6652 12.7845V18.1145C60.6652 18.9291 60.3792 19.6138 59.8072 20.1685C59.2526 20.7231 58.5766 21.0005 57.7792 21.0005H45.5072V19.0245H57.0512C57.4846 19.0245 57.8572 18.8771 58.1692 18.5825C58.4986 18.2705 58.6632 17.8978 58.6632 17.4645V13.4605C58.6632 13.0271 58.4986 12.6545 58.1692 12.3425C57.8572 12.0305 57.4846 11.8745 57.0512 11.8745H47.8212C47.0066 11.8745 46.3219 11.5971 45.7672 11.0425C45.2126 10.4705 44.9352 9.7858 44.9352 8.98846V3.65846C44.9352 2.84379 45.2126 2.15913 45.7672 1.60446C46.3219 1.04979 47.0066 0.772461 47.8212 0.772461Z" fill="white"/>
<path d="M62.9471 0.772461H78.7031V2.74846H71.8391V21.0005H69.7851V2.74846H62.9471V0.772461Z" fill="white"/>
<path d="M84.868 0.772461H87.884L95.84 21.0005H93.708L91.316 15.0205H81.41L79.044 21.0005H76.912L84.868 0.772461ZM82.216 13.0445H90.536L86.35 2.61846L82.216 13.0445Z" fill="white"/>
<path d="M98.1032 0.772461H110.947C111.745 0.772461 112.421 1.04979 112.975 1.60446C113.547 2.15913 113.833 2.84379 113.833 3.65846V11.0425C113.833 11.8571 113.547 12.5418 112.975 13.0965C112.421 13.6511 111.745 13.9285 110.947 13.9285H110.869L115.393 21.0005H112.975L108.425 13.9285H100.131V21.0005H98.1032V0.772461ZM100.131 11.9525H110.219C110.653 11.9525 111.025 11.8051 111.337 11.5105C111.667 11.1985 111.831 10.8258 111.831 10.3925V4.30846C111.831 3.87513 111.667 3.51113 111.337 3.21646C111.025 2.90446 110.653 2.74846 110.219 2.74846H100.131V11.9525Z" fill="white"/>
<path d="M115.81 0.772461H131.566V2.74846H124.702V21.0005H122.648V2.74846H115.81V0.772461Z" fill="white"/>
</svg>
